# xmcd CD database file
#
# Track frame offsets:
#	150
#	15365
#	36873
#	57280
#	72695
#	90770
#	110200
#	121368
#	144250
#	157295
#	181085
#	196815
#	211288
#	229150
#	249923
#	271900
#	292215
#
# Disc length: 4127 seconds
#
# Revision: 1
# Processed by: cddbd v1.5.2PL0 Copyright (c) Steve Scherf et al.
# Submitted via: CDex 1.50
#
DISCID=f4101d11
DTITLE=J.Karjalainen - suurimmat hitit
DYEAR=2006
DGENRE=Country
TTITLE0=ankkurinappi
TTITLE1=mies,jolle ei koskaan tapahdu mitaan
TTITLE2=runo
TTITLE3=han
TTITLE4=oi mika ihana ilta
TTITLE5=sankarit
TTITLE6=luuranko ramisee
TTITLE7=sekaisin
TTITLE8=mika mahtaa olla on
TTITLE9=kolme cowboita
TTITLE10=doris
TTITLE11=viimeinen laulu
TTITLE12=telepatiaa
TTITLE13=merenneitoni ja mina
TTITLE14=pelastusrengas
TTITLE15=ma meen
TTITLE16=tulppaani ja sadepisara
EXTD=YEAR: 2006
EXTT0=
EXTT1=
EXTT2=
EXTT3=
EXTT4=
EXTT5=
EXTT6=
EXTT7=
EXTT8=
EXTT9=
EXTT10=
EXTT11=
EXTT12=
EXTT13=
EXTT14=
EXTT15=
EXTT16=
PLAYORDER=
